<svg width="162" height="36" viewBox="0 0 162 36" fill="none" xmlns="http://www.w3.org/2000/svg">
<path d="M17.5597 0.790039C7.88697 0.790039 0.0472412 8.62417 0.0472412 18.29C0.0472412 27.9559 7.88697 35.79 17.5597 35.79C27.2325 35.79 35.0722 27.9559 35.0722 18.29C35.0722 8.62417 27.2325 0.790039 17.5597 0.790039ZM17.5597 32.5623C9.68306 32.5623 3.27725 26.1586 3.27725 18.29C3.27725 10.4214 9.68306 4.01774 17.5597 4.01774C25.4364 4.01774 31.8422 10.4214 31.8422 18.29C31.8422 26.1586 25.434 32.5623 17.5597 32.5623Z" fill="white"/>
<path d="M19.2033 16.6482H15.9166V19.9325H19.2033V16.6482Z" fill="white"/>
<path d="M19.2033 11.4609H15.9166V14.7453H19.2033V11.4609Z" fill="white"/>
<path d="M19.2033 6.27539H15.9166V9.55972H19.2033V6.27539Z" fill="white"/>
<path d="M65.4376 11.3176C64.5063 10.8302 63.4691 10.5889 62.3234 10.5889C61.1778 10.5889 60.1011 10.8376 59.1599 11.3349C58.3863 11.7436 57.7334 12.2951 57.2012 12.982C56.7085 12.2729 56.0802 11.7116 55.3165 11.3004C54.4295 10.8252 53.444 10.5864 52.3649 10.5864C51.2192 10.5864 50.1967 10.8302 49.2975 11.3152C48.7899 11.5885 48.344 11.9282 47.9498 12.3246V10.9089H43.8279V26.5378H47.9498V17.2979C47.9498 16.6701 48.0902 16.1358 48.3711 15.6926C48.652 15.2495 49.0191 14.9097 49.4749 14.6709C49.9282 14.4346 50.448 14.3139 51.032 14.3139C51.8967 14.3139 52.6211 14.5724 53.205 15.0919C53.7889 15.6114 54.0821 16.3451 54.0821 17.2979V26.5378H58.204V17.2979C58.204 16.6701 58.3444 16.1358 58.6253 15.6926C58.9062 15.2495 59.2782 14.9097 59.7439 14.6709C60.2095 14.4346 60.722 14.3139 61.2862 14.3139C62.1288 14.3139 62.8433 14.5724 63.4272 15.0919C64.0111 15.6114 64.3043 16.3451 64.3043 17.2979V26.5378H68.4582V16.6159C68.4582 15.3406 68.1872 14.2598 67.6476 13.3734C67.1056 12.4871 66.3714 11.8002 65.4401 11.3152L65.4376 11.3176Z" fill="white"/>
<path d="M74.5084 10.9141H70.3865V26.5429H74.5084V10.9141Z" fill="white"/>
<path d="M88.0902 12.3319C87.6714 11.9183 87.191 11.5687 86.6465 11.2855C85.7497 10.8202 84.7272 10.5888 83.5791 10.5888C82.1304 10.5888 80.832 10.9458 79.6863 11.6598C78.5406 12.3738 77.6364 13.3413 76.9762 14.5625C76.3159 15.7836 75.9857 17.1845 75.9857 18.7627C75.9857 20.3408 76.3159 21.6752 76.9762 22.8964C77.6364 24.1176 78.5382 25.0851 79.6863 25.7991C80.832 26.5131 82.1304 26.8701 83.5791 26.8701C84.7026 26.8701 85.725 26.6264 86.6465 26.1413C87.2107 25.8434 87.701 25.4791 88.1223 25.0507V26.5451H92.2097V3.13135H88.0878V12.3319H88.0902ZM86.4026 22.4877C85.7965 22.8545 85.082 23.0392 84.2615 23.0392C83.483 23.0392 82.7857 22.8619 82.1698 22.5049C81.5538 22.148 81.0709 21.6408 80.726 20.981C80.3786 20.3211 80.2062 19.5702 80.2062 18.7282C80.2062 17.8862 80.3786 17.1131 80.726 16.4755C81.0709 15.8378 81.5538 15.3306 82.1698 14.9515C82.7857 14.5723 83.4953 14.3852 84.296 14.3852C85.0968 14.3852 85.7989 14.5748 86.405 14.9515C87.0111 15.3306 87.4866 15.8378 87.8315 16.4755C88.1765 17.1131 88.3514 17.864 88.3514 18.7282C88.3514 19.5924 88.1789 20.3162 87.8315 20.9662C87.4841 21.6137 87.0086 22.1233 86.405 22.4902L86.4026 22.4877Z" fill="white"/>
<path d="M105.948 11.4476C105.039 10.874 104.011 10.5884 102.866 10.5884C101.72 10.5884 100.616 10.8469 99.6851 11.3664C99.1554 11.6618 98.6922 12.0237 98.2906 12.4472V10.9134H94.1687V26.5422H98.2906V17.5608C98.2906 16.933 98.431 16.3716 98.7119 15.8743C98.9928 15.377 99.3771 14.9929 99.865 14.7221C100.353 14.4513 100.907 14.3159 101.535 14.3159C102.464 14.3159 103.233 14.6187 103.839 15.2244C104.445 15.83 104.748 16.608 104.748 17.5583V26.5398H108.87V16.6499C108.87 15.6133 108.611 14.6285 108.091 13.7004C107.572 12.7722 106.86 12.0188 105.95 11.4476H105.948Z" fill="white"/>
<path d="M114.887 10.9141H110.765V26.5429H114.887V10.9141Z" fill="white"/>
<path d="M128.471 12.2876C128.07 11.8962 127.599 11.5613 127.059 11.2881C126.14 10.8227 125.096 10.5913 123.928 10.5913C122.543 10.5913 121.289 10.9311 120.163 11.613C119.037 12.295 118.155 13.2183 117.52 14.3853C116.882 15.5523 116.561 16.8719 116.561 18.3417C116.561 19.8116 116.879 21.1361 117.52 22.313C118.158 23.4923 119.04 24.4254 120.163 25.1172C121.287 25.809 122.553 26.1537 123.96 26.1537C125.106 26.1537 126.133 25.9223 127.042 25.457C127.572 25.1861 128.035 24.8513 128.437 24.4598V25.8312C128.437 27.0203 128.052 27.9559 127.284 28.6354C126.515 29.3174 125.451 29.6572 124.088 29.6572C123.029 29.6572 122.12 29.4676 121.363 29.0884C120.607 28.7093 119.924 28.1529 119.318 27.4192L116.689 30.0462C117.446 31.127 118.458 31.9641 119.722 32.5599C120.989 33.1532 122.464 33.4511 124.152 33.4511C125.84 33.4511 127.252 33.1311 128.516 32.4934C129.782 31.8557 130.77 30.9645 131.484 29.8172C132.199 28.6723 132.556 27.3305 132.556 25.7967V10.9138H128.469V12.2876H128.471ZM126.833 21.8575C126.237 22.1923 125.539 22.3597 124.741 22.3597C123.943 22.3597 123.275 22.1874 122.681 21.8403C122.085 21.4956 121.622 21.0179 121.287 20.4147C120.952 19.8091 120.784 19.1296 120.784 18.3713C120.784 17.5711 120.952 16.8744 121.287 16.2786C121.622 15.6852 122.088 15.215 122.681 14.8678C123.275 14.5231 123.975 14.3483 124.775 14.3483C125.576 14.3483 126.241 14.5207 126.835 14.8678C127.429 15.215 127.89 15.6852 128.215 16.2786C128.54 16.8744 128.703 17.5711 128.703 18.3713C128.703 19.1714 128.54 19.8411 128.215 20.4468C127.89 21.0524 127.431 21.5227 126.835 21.8575H126.833Z" fill="white"/>
<path d="M146.113 11.352C145.194 10.8448 144.139 10.5888 142.949 10.5888C141.759 10.5888 140.705 10.8473 139.786 11.3668C139.276 11.6548 138.83 12.0044 138.438 12.4156V3.13135H134.316V26.5426H138.438V17.5612C138.438 16.9334 138.579 16.3721 138.86 15.8747C139.14 15.3774 139.525 14.9933 140.013 14.7225C140.5 14.4517 141.055 14.3163 141.683 14.3163C142.612 14.3163 143.381 14.6191 143.987 15.2248C144.593 15.8304 144.896 16.6084 144.896 17.5587V26.5402H149.018V16.6503C149.018 15.4611 148.764 14.4074 148.256 13.489C147.749 12.5707 147.034 11.8567 146.115 11.3495L146.113 11.352Z" fill="white"/>
<path d="M161.738 10.9134H158.072V4.39648H153.95V10.9134H150.252V14.5129H153.95V26.5423H158.072V14.5129H161.738V10.9134Z" fill="white"/>
<path d="M72.4298 8.28663C73.7197 8.28663 74.7654 7.24167 74.7654 5.95264C74.7654 4.66361 73.7197 3.61865 72.4298 3.61865C71.1398 3.61865 70.0941 4.66361 70.0941 5.95264C70.0941 7.24167 71.1398 8.28663 72.4298 8.28663Z" fill="white"/>
<path d="M112.825 8.28663C114.115 8.28663 115.16 7.24167 115.16 5.95264C115.16 4.66361 114.115 3.61865 112.825 3.61865C111.535 3.61865 110.489 4.66361 110.489 5.95264C110.489 7.24167 111.535 8.28663 112.825 8.28663Z" fill="white"/>
</svg>
