<svg
    xmlns="http://www.w3.org/2000/svg"
    width="30"
    height="22"
    view-box="0 0 30 22"
    fill="none"
  >
    <path
      d="m10.378 0-.492.086c-.136.023-3.353.6-5.927 2.653C2.466 4.1 0 11.525 0 17.417v.246l.121.21c1.874 3.256 6.955 4.07 8.213 4.11l.517.017 1.933-3.014-.117-.074a22.87 22.87 0 0 0 3.94.331c1.51 0 2.773-.133 3.841-.313l1.904 3.066.528-.014c1.258-.038 6.34-.852 8.213-4.108l.122-.21v-.247c0-5.892-2.466-13.317-4.002-14.717C22.684.69 19.468.11 19.333.086L18.84 0l-.338.364c-.094.098-.813.913-1.224 1.754a17.719 17.719 0 0 0-2.67-.22c-.465 0-1.452.034-2.665.224-.412-.842-1.137-1.66-1.23-1.758L10.378 0Zm-.674 1.997c.142.179.287.379.413.578.327.604.586 1.095.788 1.615a16.428 16.428 0 0 1 3.702-.467c.424 0 1.996.036 3.791.489l.753-1.694-.015-.004c.117-.177.245-.356.371-.517.92.228 2.934.834 4.515 2.09.802.732 3.292 7.141 3.363 13.074-1.27 1.9-4.485 2.757-6.052 2.952l-.988-1.59c1.291-.365 1.962-.736 2.015-.767l-.895-1.594c-.024.013-2.322 1.255-6.858 1.255-4.535 0-6.834-1.242-6.858-1.255l-.895 1.594c.053.031.742.405 2.054.774l-1.02 1.583c-1.56-.193-4.786-1.048-6.059-2.952.072-5.93 2.558-12.34 3.313-13.031 1.618-1.288 3.64-1.905 4.562-2.133Zm-.118 5.378c-1.762 0-3.195 1.638-3.195 3.652 0 2.014 1.433 3.652 3.195 3.652 1.762 0 3.195-1.638 3.195-3.652 0-2.014-1.433-3.652-3.195-3.652Zm10.042 0c-1.762 0-3.195 1.638-3.195 3.652 0 2.014 1.433 3.652 3.195 3.652 1.762 0 3.196-1.638 3.196-3.652 0-2.014-1.434-3.652-3.196-3.652ZM9.586 9.2c.741 0 1.37.836 1.37 1.826 0 .99-.629 1.826-1.37 1.826-.741 0-1.37-.837-1.37-1.826 0-.99.629-1.826 1.37-1.826Zm10.042 0c.742 0 1.37.836 1.37 1.826 0 .99-.628 1.826-1.37 1.826-.74 0-1.369-.837-1.369-1.826 0-.99.628-1.826 1.37-1.826Z"
      fill="#fff"
    />
  </svg>
