<svg width="116" height="26" viewBox="0 0 116 26" fill="none" xmlns="http://www.w3.org/2000/svg">
<path d="M12.5089 0.5C5.59981 0.5 0 6.09581 0 13C0 19.9042 5.59981 25.5 12.5089 25.5C19.4181 25.5 25.0179 19.9042 25.0179 13C25.0179 6.09581 19.4181 0.5 12.5089 0.5ZM12.5089 23.1945C6.88273 23.1945 2.30715 18.6204 2.30715 13C2.30715 7.37957 6.88273 2.8055 12.5089 2.8055C18.1351 2.8055 22.7107 7.37957 22.7107 13C22.7107 18.6204 18.1334 23.1945 12.5089 23.1945Z" fill="black"/>
<path d="M13.6827 11.8271H11.3351V14.1731H13.6827V11.8271Z" fill="black"/>
<path d="M13.6827 8.12158H11.3351V10.4675H13.6827V8.12158Z" fill="black"/>
<path d="M13.6827 4.41797H11.3351V6.76392H13.6827V4.41797Z" fill="black"/>
<path d="M46.7076 8.01937C46.0424 7.67117 45.3015 7.49883 44.4832 7.49883C43.6649 7.49883 42.8958 7.67645 42.2235 8.03168C41.671 8.3236 41.2046 8.71753 40.8245 9.20817C40.4725 8.7017 40.0237 8.30074 39.4782 8.00706C38.8447 7.66765 38.1407 7.49707 37.3699 7.49707C36.5516 7.49707 35.8212 7.67117 35.1789 8.01761C34.8164 8.21281 34.4978 8.4555 34.2163 8.73863V7.72744H31.2721V18.8909H34.2163V12.291C34.2163 11.8425 34.3166 11.4609 34.5172 11.1444C34.7178 10.8278 34.98 10.5851 35.3056 10.4146C35.6294 10.2457 36.0008 10.1596 36.4178 10.1596C37.0355 10.1596 37.5529 10.3442 37.97 10.7153C38.3871 11.0863 38.5965 11.6104 38.5965 12.291V18.8909H41.5407V12.291C41.5407 11.8425 41.641 11.4609 41.8417 11.1444C42.0423 10.8278 42.308 10.5851 42.6406 10.4146C42.9732 10.2457 43.3393 10.1596 43.7423 10.1596C44.3441 10.1596 44.8545 10.3442 45.2716 10.7153C45.6887 11.0863 45.8981 11.6104 45.8981 12.291V18.8909H48.8652V11.8038C48.8652 10.8929 48.6716 10.1209 48.2862 9.48778C47.899 8.8547 47.3746 8.36405 46.7094 8.01761L46.7076 8.01937Z" fill="black"/>
<path d="M53.1864 7.73145H50.2422V18.8949H53.1864V7.73145Z" fill="black"/>
<path d="M62.8879 8.74419C62.5887 8.44875 62.2455 8.19903 61.8566 7.99679C61.216 7.66442 60.4857 7.49911 59.6656 7.49911C58.6308 7.49911 57.7034 7.7541 56.8851 8.26409C56.0667 8.77408 55.4209 9.46521 54.9492 10.3375C54.4776 11.2097 54.2418 12.2104 54.2418 13.3376C54.2418 14.4649 54.4776 15.418 54.9492 16.2903C55.4209 17.1625 56.065 17.8536 56.8851 18.3636C57.7034 18.8736 58.6308 19.1286 59.6656 19.1286C60.4681 19.1286 61.1984 18.9545 61.8566 18.6081C62.2596 18.3953 62.6098 18.135 62.9108 17.829V18.8965H65.8303V2.17236H62.8861V8.74419H62.8879ZM61.6824 15.9983C61.2495 16.2604 60.7391 16.3923 60.1531 16.3923C59.597 16.3923 59.0989 16.2656 58.659 16.0106C58.219 15.7557 57.8741 15.3934 57.6277 14.9221C57.3796 14.4508 57.2564 13.9144 57.2564 13.313C57.2564 12.7115 57.3796 12.1594 57.6277 11.7039C57.8741 11.2484 58.219 10.8861 58.659 10.6153C59.0989 10.3445 59.6058 10.2108 60.1777 10.2108C60.7497 10.2108 61.2512 10.3463 61.6842 10.6153C62.1171 10.8861 62.4567 11.2484 62.7031 11.7039C62.9495 12.1594 63.0744 12.6957 63.0744 13.313C63.0744 13.9302 62.9512 14.4473 62.7031 14.9115C62.455 15.374 62.1153 15.7381 61.6842 16.0001L61.6824 15.9983Z" fill="black"/>
<path d="M75.6433 8.11277C74.9939 7.70302 74.2601 7.49902 73.4417 7.49902C72.6234 7.49902 71.835 7.68367 71.1698 8.05474C70.7914 8.26576 70.4606 8.52428 70.1737 8.82675V7.73116H67.2295V18.8946H70.1737V12.4793C70.1737 12.0309 70.274 11.6299 70.4746 11.2747C70.6753 10.9195 70.9498 10.6451 71.2982 10.4517C71.6467 10.2582 72.0427 10.1615 72.4914 10.1615C73.1549 10.1615 73.7039 10.3778 74.1369 10.8104C74.5698 11.243 74.7862 11.7988 74.7862 12.4776V18.8929H77.7305V11.8286C77.7305 11.0883 77.5457 10.3849 77.1743 9.72187C76.803 9.05888 76.2944 8.52076 75.645 8.11277H75.6433Z" fill="black"/>
<path d="M82.0285 7.73145H79.0843V18.8949H82.0285V7.73145Z" fill="black"/>
<path d="M91.7314 8.71264C91.4445 8.43303 91.1084 8.19386 90.723 7.99865C90.0666 7.66628 89.3204 7.50098 88.4862 7.50098C87.4972 7.50098 86.6014 7.74366 85.7972 8.23079C84.9929 8.71792 84.3629 9.37738 83.9089 10.211C83.4531 11.0445 83.2243 11.9871 83.2243 13.037C83.2243 14.0869 83.4513 15.033 83.9089 15.8736C84.3647 16.7159 84.9947 17.3825 85.7972 17.8766C86.5997 18.3708 87.5042 18.617 88.5091 18.617C89.3274 18.617 90.0613 18.4517 90.7107 18.1193C91.089 17.9259 91.4199 17.6867 91.7067 17.4071V18.3866C91.7067 19.236 91.4322 19.9043 90.8831 20.3896C90.334 20.8768 89.5738 21.1194 88.6006 21.1194C87.8439 21.1194 87.1945 20.984 86.6542 20.7132C86.114 20.4424 85.6265 20.0449 85.1936 19.5209L83.3158 21.3973C83.8561 22.1693 84.5794 22.7672 85.4822 23.1928C86.3867 23.6166 87.4409 23.8294 88.6464 23.8294C89.8519 23.8294 90.8602 23.6008 91.763 23.1453C92.6676 22.6899 93.3733 22.0532 93.8836 21.2337C94.394 20.416 94.6492 19.4576 94.6492 18.362V7.73135H91.7296V8.71264H91.7314ZM90.5611 15.5482C90.1352 15.7874 89.6372 15.907 89.067 15.907C88.4968 15.907 88.0199 15.7839 87.5957 15.5359C87.1699 15.2897 86.839 14.9486 86.5997 14.5177C86.3603 14.0851 86.2407 13.5997 86.2407 13.0581C86.2407 12.4866 86.3603 11.9889 86.5997 11.5633C86.839 11.1395 87.1716 10.8036 87.5957 10.5556C88.0199 10.3094 88.5197 10.1846 89.0916 10.1846C89.6636 10.1846 90.1387 10.3077 90.5628 10.5556C90.9869 10.8036 91.316 11.1395 91.5483 11.5633C91.7806 11.9889 91.8968 12.4866 91.8968 13.0581C91.8968 13.6296 91.7806 14.108 91.5483 14.5406C91.316 14.9732 90.9887 15.3091 90.5628 15.5482H90.5611Z" fill="black"/>
<path d="M104.333 8.04427C103.676 7.682 102.923 7.49911 102.073 7.49911C101.223 7.49911 100.47 7.68376 99.8135 8.05482C99.4492 8.26057 99.1307 8.51029 98.8509 8.80397V2.17236H95.9066V18.8947H98.8509V12.4794C98.8509 12.031 98.9512 11.63 99.1518 11.2748C99.3524 10.9195 99.627 10.6452 99.9754 10.4518C100.324 10.2583 100.72 10.1616 101.169 10.1616C101.832 10.1616 102.381 10.3779 102.814 10.8105C103.247 11.2431 103.463 11.7988 103.463 12.4776V18.893H106.408V11.8287C106.408 10.9793 106.226 10.2267 105.864 9.57071C105.501 8.91476 104.991 8.40477 104.335 8.04251L104.333 8.04427Z" fill="black"/>
<path d="M115.494 7.73114H112.875V3.07617H109.931V7.73114H107.289V10.3022H109.931V18.8946H112.875V10.3022H115.494V7.73114Z" fill="black"/>
<path d="M51.7018 5.85478C52.6232 5.85478 53.3702 5.10838 53.3702 4.18764C53.3702 3.26691 52.6232 2.52051 51.7018 2.52051C50.7804 2.52051 50.0335 3.26691 50.0335 4.18764C50.0335 5.10838 50.7804 5.85478 51.7018 5.85478Z" fill="black"/>
<path d="M80.5554 5.85478C81.4768 5.85478 82.2238 5.10838 82.2238 4.18764C82.2238 3.26691 81.4768 2.52051 80.5554 2.52051C79.634 2.52051 78.8871 3.26691 78.8871 4.18764C78.8871 5.10838 79.634 5.85478 80.5554 5.85478Z" fill="black"/>
</svg>
