<svg
    xmlns="http://www.w3.org/2000/svg"
    width="28"
    height="22"
    fill="none"
  >
    <path
      fill="#fff"
      d="M14 0C9.922 0 6.312.422 4.117.75 2.32 1.016.891 2.422.563 4.227.28 5.805 0 8.109 0 11c0 2.89.281 5.195.563 6.773a4.282 4.282 0 0 0 3.554 3.477C6.32 21.578 9.945 22 14 22c4.055 0 7.672-.422 9.875-.75h.008c1.797-.266 3.226-1.672 3.555-3.477.28-1.585.562-3.89.562-6.773 0-2.89-.281-5.195-.57-6.773-.32-1.805-1.75-3.211-3.547-3.477C21.688.422 18.078 0 14 0Zm0 2c3.938 0 7.46.406 9.586.727.937.14 1.695.875 1.875 1.851C25.727 6.055 26 8.242 26 11c0 2.758-.273 4.945-.531 6.414-.18.984-.938 1.719-1.883 1.86-2.14.312-5.672.726-9.586.726-3.914 0-7.453-.414-9.586-.727a2.272 2.272 0 0 1-1.883-1.859C2.273 15.937 2 13.758 2 11c0-2.766.273-4.945.531-6.422.18-.976.938-1.71 1.875-1.844h.008C6.54 2.414 10.063 2 14 2Zm-4 4v10l10-5-10-5Z"
    />
  </svg>
